<?xml version="1.0" encoding="UTF-8"?>
<svg width="40px" height="40px" version="1.1" viewBox="0 0 700 700" xmlns="http://www.w3.org/2000/svg">
 <path fill="#dddddd" d="m528.89 396.67c4.293 0 7.7773 3.4805 7.7773 7.7773v31.109c0 4.2969-3.4844 7.7773-7.7773 7.7773h-357.78c-4.293 0-7.7773-3.4805-7.7773-7.7773v-31.109c0-4.2969 3.4844-7.7773 7.7773-7.7773zm0-140c4.293 0 7.7773 3.4805 7.7773 7.7773v31.109c0 4.2969-3.4844 7.7773-7.7773 7.7773h-357.78c-4.293 0-7.7773-3.4805-7.7773-7.7773v-31.109c0-4.2969 3.4844-7.7773 7.7773-7.7773zm0-140c4.293 0 7.7773 3.4805 7.7773 7.7773v31.109c0 4.2969-3.4844 7.7773-7.7773 7.7773h-357.78c-4.293 0-7.7773-3.4805-7.7773-7.7773v-31.109c0-4.2969 3.4844-7.7773 7.7773-7.7773z" fill-rule="evenodd"/>
</svg>
