<?xml version="1.0" encoding="UTF-8"?>
<svg fill="#eeeeee" width="752pt" height="752pt" version="1.1" viewBox="0 0 752 752" xmlns="http://www.w3.org/2000/svg">
 <defs>
  <clipPath id="d">
   <path d="m205 139.21h83v473.58h-83z"/>
  </clipPath>
  <clipPath id="c">
   <path d="m487 139.21h60v473.58h-60z"/>
  </clipPath>
  <clipPath id="b">
   <path d="m353 139.21h112v473.58h-112z"/>
  </clipPath>
  <clipPath id="a">
   <path d="m287 316h82v296.79h-82z"/>
  </clipPath>
 </defs>
 <g>
  <g clip-path="url(#d)">
   <path d="m287.13 279.81v-133.2c0-4.0938-3.3086-7.3984-7.3984-7.3984-4.0938 0-7.3984 3.3086-7.3984 7.3984v88.797h-7.3984v-88.797c0-4.0938-3.3086-7.3984-7.3984-7.3984-4.0938 0-7.3984 3.3086-7.3984 7.3984v88.797h-7.3984v-88.797c0-4.0938-3.3086-7.3984-7.3984-7.3984-4.0938 0-7.3984 3.3086-7.3984 7.3984v88.797h-7.3984v-88.797c0-4.0938-3.3086-7.3984-7.3984-7.3984-4.0938 0-7.3984 3.3086-7.3984 7.3984v133.2c0 13.75 9.4648 25.242 22.199 28.547l-0.015625 285.93c0 10.203 8.2969 18.5 18.5 18.5s18.5-8.2969 18.5-18.5v-285.93c12.734-3.3047 22.199-14.797 22.199-28.547zm-40.699 318.18c-2.0352 0-3.6992-1.6641-3.6992-3.6992v-284.88h7.3984v284.88c0 2.0352-1.6562 3.6992-3.6992 3.6992zm11.098-303.38h-22.199c-8.1602 0-14.801-6.6367-14.801-14.801v-29.598h51.797v29.598c0.003906 8.1602-6.6328 14.801-14.797 14.801z"/>
  </g>
  <g clip-path="url(#c)">
   <path d="m494.46 139.22c-4.0938 0-7.3984 3.3086-7.3984 7.3984 0 0.035156 0.023437 0.058593 0.023437 0.097656 0 0.007812-0.007812 0.015625-0.007812 0.023437l-0.003907 447.55c0 10.203 8.2969 18.5 18.5 18.5 10.203 0 18.5-8.2969 18.5-18.5v-203.28h14.801c4.0938 0 7.3984-3.3086 7.3984-7.3984v-192.59c0-28.57-23.242-51.812-51.812-51.812zm14.812 455.07c0 2.0352-1.6641 3.6992-3.6992 3.6992-2.0352 0-3.6992-1.6641-3.6992-3.6992v-203.28h7.3984zm22.199-218.08h-29.598v-221.44c16.863 3.4414 29.598 18.387 29.598 36.258z"/>
  </g>
  <g clip-path="url(#b)">
   <path d="m464.66 194.7c0-30.605-24.898-55.504-55.512-55.504-30.613 0-55.512 24.898-55.512 55.504v59.199c0 24.117 15.488 44.629 37.012 52.273v288.12c0 10.203 8.2969 18.5 18.5 18.5s18.5-8.2969 18.5-18.5v-288.12c21.527-7.6445 37.012-28.164 37.012-52.273 0-0.023438-0.015624-0.042969-0.015624-0.074219v-59.051c0-0.027344 0.015624-0.050782 0.015624-0.070313zm-51.812 399.59c0 2.0352-1.6641 3.6992-3.6992 3.6992s-3.6992-1.6641-3.6992-3.6992v-285.07c1.2266 0.082032 2.4492 0.18359 3.6992 0.18359s2.4727-0.10938 3.6992-0.18359zm-3.6992-299.68c-22.449 0-40.715-18.262-40.715-40.715v-59.199c0-22.441 18.262-40.707 40.715-40.707 22.43 0 40.676 18.234 40.715 40.648 0 0.023437-0.015626 0.035156-0.015626 0.058594v59.199c0 0.023437 0.015626 0.035156 0.015626 0.058593-0.03125 22.422-18.277 40.656-40.715 40.656z"/>
  </g>
  <g clip-path="url(#a)">
   <path d="m327.82 316.81c-22.438 0-40.699 18.262-40.699 40.699v37c0 15.777 9.043 29.449 22.199 36.207v163.59c0 10.203 8.2969 18.5 18.5 18.5s18.5-8.2969 18.5-18.5l-0.003906-163.6c13.156-6.75 22.199-20.43 22.199-36.207v-37c0-22.434-18.254-40.695-40.695-40.695zm3.6992 277.5c0 2.0352-1.6641 3.6992-3.6992 3.6992s-3.6992-1.6641-3.6992-3.6992l-0.003907-159.29c1.2227 0.10938 2.4492 0.18359 3.6992 0.18359s2.4805-0.082031 3.6992-0.18359zm-3.6992-173.9c-14.281 0-25.898-11.617-25.898-25.898v-37c0-14.281 11.617-25.898 25.898-25.898s25.898 11.617 25.898 25.898v37c0 14.281-11.617 25.898-25.898 25.898z"/>
  </g>
 </g>
</svg>
