<?xml version="1.0" encoding="UTF-8"?>
<svg width="60px" height="50px" version="1.1" viewBox="0 0 700 700" xmlns="http://www.w3.org/2000/svg" xmlns:xlink="http://www.w3.org/1999/xlink">
 <g>
  <path fill="#e9692c" d="m612.64 76.16-16.801-4.4805c-45.359-11.762-95.762 12.879-122.08 28.559l15.121-50.961-17.359 10.641c-19.039 11.199-33.039 29.121-42.559 43.68l-2.2383-27.441-12.328 13.445c-16.238 17.359-26.32 47.039-30.801 61.602-39.199-14.559-80.641 4.4805-118.72 39.762l56 56-13.441 13.441-56-56c-19.602 20.16-38.641 44.238-56 70l34.16 34.16-13.996 13.434-31.359-31.359c-20.719 31.922-39.762 65.52-54.32 95.199l12.32 12.32-13.441 13.441-8.4023-7.8398c-19.602 40.32-31.359 71.68-32.48 79.52-1.1211 10.641 1.1211 17.922 5.0391 21.84 3.9219 3.9219 11.199 6.1602 21.84 5.0391 13.441-1.6797 91.281-33.602 168.56-80.641l-12.32-12.32 13.441-13.441 15.121 15.121c16.801-10.641 33.039-21.84 48.719-33.602l-43.68-43.68 13.441-13.441 45.359 45.359c64.961-53.195 109.2-114.23 77.844-171.36 38.078-11.762 86.238-36.398 88.48-37.52l40.879-21.281-64.398 8.9609zm-180.32 112c-3.3594-3.9219-6.7188-7.8398-10.641-11.762-7.8398-7.8398-15.121-13.441-22.961-18.48 2.2383-8.3984 7.8398-25.199 15.68-39.762l3.9219 48.719 12.879-31.922c0-0.55859 10.078-25.762 29.68-45.922l-15.68 50.969 19.039-14.559c0.55859-0.55859 56-41.441 108.08-40.879l-128.8 91.84 30.801-4.4805c-13.438 6.7188-29.117 12.316-41.996 16.238z"/>
 </g>
</svg>
