<?xml version="1.0" encoding="utf-8"?>
<!-- Generator: Adobe Illustrator 24.2.3, SVG Export Plug-In . SVG Version: 6.00 Build 0)  -->
<svg width="40px" height="70px" version="1.1" id="Calque_1" xmlns="http://www.w3.org/2000/svg" xmlns:xlink="http://www.w3.org/1999/xlink" x="0px" y="0px"
	 viewBox="0 0 18.5 56.5" style="enable-background:new 0 0 18.5 56.5;" xml:space="preserve">
<style type="text/css">
	.st0{fill-rule:evenodd;clip-rule:evenodd;fill:#DDDDDD;}
</style>
<g>
	<path class="st0" d="M9.4,18.7c-6.2,0-6.5,4-6.5,11.2c0,7.2,3.9,24.3,6.5,24.3c2.7,0,6.5-17,6.5-24.3C15.9,22.7,15.6,18.7,9.4,18.7
		 M9.4,56C3.9,56,1,34.1,1,29.9c0-6.4,0-13.1,8.4-13.1s8.4,6.6,8.4,13.1C17.8,34.1,14.9,56,9.4,56"/>
	<path class="st0" d="M12.7,18.9c-0.1,0-0.2,0-0.3-0.1c-0.5-0.2-0.7-0.7-0.6-1.2l4.4-12.2l-1.8-0.6l-2.3,6.5
		c-0.2,0.5-0.7,0.7-1.2,0.6c-0.5-0.2-0.7-0.7-0.6-1.2L13,3.4c0.2-0.5,0.7-0.7,1.2-0.6l3.5,1.3c0.2,0.1,0.4,0.3,0.5,0.5
		c0.1,0.2,0.1,0.5,0,0.7l-4.7,13.1C13.5,18.7,13.1,18.9,12.7,18.9"/>
	<path class="st0" d="M6.1,18.9c-0.4,0-0.7-0.2-0.9-0.6L0.5,5.3C0.3,4.8,0.5,4.2,1,4.1l3.5-1.3c0.5-0.2,1,0.1,1.2,0.6l2.7,7.4
		c0.2,0.5-0.1,1-0.6,1.2c-0.5,0.2-1-0.1-1.2-0.6L4.3,4.9L2.5,5.5l4.4,12.2c0.2,0.5-0.1,1-0.6,1.2C6.3,18.9,6.2,18.9,6.1,18.9"/>
	<path class="st0" d="M9.4,16.8c0.3,0,0.6,0,0.9,0v-15H8.5v15C8.8,16.8,9.1,16.8,9.4,16.8 M11.3,18.7C11.2,18.7,11.2,18.7,11.3,18.7
		c-1.3-0.1-2.4-0.1-3.7,0c-0.3,0-0.5-0.1-0.7-0.2c-0.2-0.2-0.3-0.4-0.3-0.7V0.9C6.6,0.4,7,0,7.5,0h3.7c0.5,0,0.9,0.4,0.9,0.9v16.9
		c0,0.3-0.1,0.5-0.3,0.7C11.7,18.7,11.5,18.7,11.3,18.7"/>
	<path class="st0" d="M4.7,28H1.9C1.4,28,1,27.6,1,27.1c0-0.5,0.4-0.9,0.9-0.9h2.8c0.5,0,0.9,0.4,0.9,0.9C5.7,27.6,5.2,28,4.7,28"/>
	<path class="st0" d="M16.8,31.7h-2.8c-0.5,0-0.9-0.4-0.9-0.9c0-0.5,0.4-0.9,0.9-0.9h2.8c0.5,0,0.9,0.4,0.9,0.9
		C17.7,31.3,17.3,31.7,16.8,31.7"/>
	<path class="st0" d="M10.3,36.4H7.5c-0.5,0-0.9-0.4-0.9-0.9c0-0.5,0.4-0.9,0.9-0.9h2.8c0.5,0,0.9,0.4,0.9,0.9
		C11.3,36,10.8,36.4,10.3,36.4"/>
	<path class="st0" d="M15,42h-1.9c-0.5,0-0.9-0.4-0.9-0.9c0-0.5,0.4-0.9,0.9-0.9H15c0.5,0,0.9,0.4,0.9,0.9C15.9,41.6,15.5,42,15,42"
		/>
	<path class="st0" d="M7.5,46.7H4.7c-0.5,0-0.9-0.4-0.9-0.9c0-0.5,0.4-0.9,0.9-0.9h2.8c0.5,0,0.9,0.4,0.9,0.9
		C8.5,46.2,8,46.7,7.5,46.7"/>
	<path class="st0" d="M12.2,25.2H9.4c-0.5,0-0.9-0.4-0.9-0.9c0-0.5,0.4-0.9,0.9-0.9h2.8c0.5,0,0.9,0.4,0.9,0.9
		C13.1,24.8,12.7,25.2,12.2,25.2"/>
</g>
</svg>
